<?xml version="1.0" encoding="utf-8"?>
<svg xmlns="http://www.w3.org/2000/svg" viewBox="0 0 50 50" width="40" height="40">
  <path d="M5 3L5 34L45 34L45 3L5 3 z M 7 5L43 5L43 32L7 32L7 5 z M 9 7L9 21.585938L18.292969 12.292969C18.493969 12.091969 18.776641 11.988953 19.056641 12.001953C19.339641 12.017953 19.60325 12.153 19.78125 12.375L27.271484 21.736328L31.349609 18.240234C31.708609 17.930234 32.238234 17.918938 32.615234 18.210938L41 24.732422L41 7L9 7 z M 32 11C33.105 11 34 11.895 34 13C34 14.105 33.105 15 32 15C30.895 15 30 14.105 30 13C30 11.895 30.895 11 32 11 z M 18.917969 14.496094L9 24.414062L9 30L41 30L41 27.267578L32.029297 20.291016L24.892578 26.410156L21.863281 26.371094L25.751953 23.039062L18.917969 14.496094 z M 8.5 36C6.567 36 5 37.567 5 39.5L5 47L12 47L12 43.537109C14.386 45.773109 18.837 47 25 47C31.163 47 35.614 45.773109 38 43.537109L38 47L45 47L45 39.5C45 37.567 43.433 36 41.5 36C39.738 36 38.295781 37.306 38.050781 39L38 39C38 44.567 28.05 45 25 45C21.95 45 12 44.567 12 39L11.949219 39C11.704219 37.306 10.262 36 8.5 36 z" />
</svg>