<?xml version="1.0" encoding="utf-8"?>
<svg xmlns="http://www.w3.org/2000/svg" viewBox="0 0 32 32" width="40" height="40">
  <path d="M5 5L5 15L3 15L3 17L29 17L29 15L27 15L27 5L5 5 z M 5 19L5 27L27 27L27 19L25 19L25 21L23 21L23 23L25 23L25 25L23 25L23 23L21 23L21 25L19 25L19 23L17 23L17 25L15 25L15 23L13 23L13 25L11 25L11 23L9 23L9 25L7 25L7 23L9 23L9 21L7 21L7 19L5 19 z M 9 21L11 21L11 19L9 19L9 21 z M 11 21L11 23L13 23L13 21L11 21 z M 13 21L15 21L15 19L13 19L13 21 z M 15 21L15 23L17 23L17 21L15 21 z M 17 21L19 21L19 19L17 19L17 21 z M 19 21L19 23L21 23L21 21L19 21 z M 21 21L23 21L23 19L21 19L21 21 z" />
</svg>