<?xml version="1.0" encoding="utf-8"?>
<svg xmlns="http://www.w3.org/2000/svg" viewBox="0 0 100 100" width="500" height="500">
  <path fill="#c7ede6" d="M87.215,56.71C88.35,54.555,89,52.105,89,49.5c0-6.621-4.159-12.257-10.001-14.478 C78.999,35.015,79,35.008,79,35c0-11.598-9.402-21-21-21c-9.784,0-17.981,6.701-20.313,15.757C36.211,29.272,34.638,29,33,29 c-7.692,0-14.023,5.793-14.89,13.252C12.906,43.353,9,47.969,9,53.5C9,59.851,14.149,65,20.5,65c0.177,0,0.352-0.012,0.526-0.022 C21.022,65.153,21,65.324,21,65.5C21,76.822,30.178,86,41.5,86c6.437,0,12.175-2.972,15.934-7.614C59.612,80.611,62.64,82,66,82 c4.65,0,8.674-2.65,10.666-6.518C77.718,75.817,78.837,76,80,76c6.075,0,11-4.925,11-11C91,61.689,89.53,58.727,87.215,56.71z" />
  <path fill="#fdfcef" d="M37.5,50.5V51h3v-0.5c0,0,4.242,0,5.5,0c2.485,0,4.5-2.015,4.5-4.5 c0-2.333-1.782-4.229-4.055-4.455C46.467,41.364,46.5,41.187,46.5,41c0-2.485-2.015-4.5-4.5-4.5c-1.438,0-2.703,0.686-3.527,1.736 C38.333,35.6,36.171,33.5,33.5,33.5c-2.761,0-5,2.239-5,5c0,0.446,0.077,0.87,0.187,1.282C28.045,39.005,27.086,38.5,26,38.5 c-1.781,0-3.234,1.335-3.455,3.055C22.364,41.533,22.187,41.5,22,41.5c-2.485,0-4.5,2.015-4.5,4.5s2.015,4.5,4.5,4.5s9.5,0,9.5,0 H37.5z" />
  <path fill="#472b29" d="M33.5,33c-3.033,0-5.5,2.467-5.5,5.5c0,0.016,0,0.031,0,0.047C27.398,38.192,26.71,38,26,38 c-1.831,0-3.411,1.261-3.858,3.005C22.095,41.002,22.048,41,22,41c-2.757,0-5,2.243-5,5s2.243,5,5,5h15.5 c0.276,0,0.5-0.224,0.5-0.5S37.776,50,37.5,50H22c-2.206,0-4-1.794-4-4s1.794-4,4-4c0.117,0,0.23,0.017,0.343,0.032l0.141,0.019 c0.021,0.003,0.041,0.004,0.062,0.004c0.246,0,0.462-0.185,0.495-0.437C23.232,40.125,24.504,39,26,39 c0.885,0,1.723,0.401,2.301,1.1c0.098,0.118,0.241,0.182,0.386,0.182c0.078,0,0.156-0.018,0.228-0.056 c0.209-0.107,0.314-0.346,0.254-0.573C29.054,39.218,29,38.852,29,38.5c0-2.481,2.019-4.5,4.5-4.5 c2.381,0,4.347,1.872,4.474,4.263c0.011,0.208,0.15,0.387,0.349,0.45c0.05,0.016,0.101,0.024,0.152,0.024 c0.15,0,0.296-0.069,0.392-0.192C39.638,37.563,40.779,37,42,37c2.206,0,4,1.794,4,4c0,0.117-0.017,0.23-0.032,0.343l-0.019,0.141 c-0.016,0.134,0.022,0.268,0.106,0.373c0.084,0.105,0.207,0.172,0.34,0.185C48.451,42.247,50,43.949,50,46c0,2.206-1.794,4-4,4 h-5.5c-0.276,0-0.5,0.224-0.5,0.5s0.224,0.5,0.5,0.5H46c2.757,0,5-2.243,5-5c0-2.397-1.689-4.413-4.003-4.877 C46.999,41.082,47,41.041,47,41c0-2.757-2.243-5-5-5c-1.176,0-2.293,0.416-3.183,1.164C38.219,34.76,36.055,33,33.5,33L33.5,33z" />
  <path fill="#472b29" d="M32 40c-1.403 0-2.609.999-2.913 2.341C28.72 42.119 28.301 42 27.875 42c-1.202 0-2.198.897-2.353 2.068C25.319 44.022 25.126 44 24.937 44c-1.529 0-2.811 1.2-2.918 2.732C22.01 46.87 22.114 46.99 22.251 47c.006 0 .012 0 .018 0 .13 0 .24-.101.249-.232.089-1.271 1.151-2.268 2.419-2.268.229 0 .47.042.738.127.022.007.045.01.067.01.055 0 .11-.02.156-.054C25.962 44.537 26 44.455 26 44.375c0-1.034.841-1.875 1.875-1.875.447 0 .885.168 1.231.473.047.041.106.063.165.063.032 0 .063-.006.093-.019.088-.035.148-.117.155-.212C29.623 41.512 30.712 40.5 32 40.5c.208 0 .425.034.682.107.023.007.047.01.07.01.109 0 .207-.073.239-.182.038-.133-.039-.271-.172-.309C32.517 40.04 32.256 40 32 40L32 40zM45.883 41.5c-1.326 0-2.508.897-2.874 2.182-.038.133.039.271.172.309C43.205 43.997 43.228 44 43.25 44c.109 0 .209-.072.24-.182C43.795 42.748 44.779 42 45.883 42c.117 0 .23.014.342.029.012.002.023.003.035.003.121 0 .229-.092.246-.217.019-.137-.077-.263-.214-.281C46.158 41.516 46.022 41.5 45.883 41.5L45.883 41.5z" />
  <path fill="#fff" d="M25.5 75h-10c-.276 0-.5-.224-.5-.5s.224-.5.5-.5h10c.276 0 .5.224.5.5S25.777 75 25.5 75zM28.5 75h-1c-.276 0-.5-.224-.5-.5s.224-.5.5-.5h1c.276 0 .5.224.5.5S28.777 75 28.5 75zM33.491 77H24.5c-.276 0-.5-.224-.5-.5s.224-.5.5-.5h8.991c.276 0 .5.224.5.5S33.767 77 33.491 77zM22.5 77h-1c-.276 0-.5-.224-.5-.5s.224-.5.5-.5h1c.276 0 .5.224.5.5S22.777 77 22.5 77zM19.5 77h-2c-.276 0-.5-.224-.5-.5s.224-.5.5-.5h2c.276 0 .5.224.5.5S19.777 77 19.5 77zM25.5 79h-2c-.276 0-.5-.224-.5-.5s.224-.5.5-.5h2c.276 0 .5.224.5.5S25.776 79 25.5 79zM28.5 70c-.177 0-.823 0-1 0-.276 0-.5.224-.5.5 0 .276.224.5.5.5.177 0 .823 0 1 0 .276 0 .5-.224.5-.5C29 70.224 28.776 70 28.5 70zM28.5 72c-.177 0-4.823 0-5 0-.276 0-.5.224-.5.5 0 .276.224.5.5.5.177 0 4.823 0 5 0 .276 0 .5-.224.5-.5C29 72.224 28.776 72 28.5 72zM33.5 74c-.177 0-2.823 0-3 0-.276 0-.5.224-.5.5 0 .276.224.5.5.5.177 0 2.823 0 3 0 .276 0 .5-.224.5-.5C34 74.224 33.776 74 33.5 74z" />
  <g>
    <path fill="#fff" d="M74.5 29h-10c-.276 0-.5-.224-.5-.5s.224-.5.5-.5h10c.276 0 .5.224.5.5S74.776 29 74.5 29zM78.5 29h-2c-.276 0-.5-.224-.5-.5s.224-.5.5-.5h2c.276 0 .5.224.5.5S78.776 29 78.5 29zM83.5 31h-10c-.276 0-.5-.224-.5-.5s.224-.5.5-.5h10c.276 0 .5.224.5.5S83.777 31 83.5 31zM71.5 31h-1c-.276 0-.5-.224-.5-.5s.224-.5.5-.5h1c.276 0 .5.224.5.5S71.776 31 71.5 31zM68.47 31H66.5c-.276 0-.5-.224-.5-.5s.224-.5.5-.5h1.97c.276 0 .5.224.5.5S68.746 31 68.47 31zM77.5 27h-5c-.276 0-.5-.224-.5-.5s.224-.5.5-.5h5c.276 0 .5.224.5.5S77.777 27 77.5 27zM74.5 33h-2c-.276 0-.5-.224-.5-.5s.224-.5.5-.5h2c.276 0 .5.224.5.5S74.776 33 74.5 33z" />
  </g>
  <g>
    <path fill="#fdfcef" d="M73.5,69.5c0,0,1.567,0,3.5,0s3.5-1.567,3.5-3.5c0-1.781-1.335-3.234-3.055-3.455 C77.473,62.366,77.5,62.187,77.5,62c0-1.933-1.567-3.5-3.5-3.5c-1.032,0-1.95,0.455-2.59,1.165 c-0.384-1.808-1.987-3.165-3.91-3.165c-2.209,0-4,1.791-4,4c0,0.191,0.03,0.374,0.056,0.558C63.128,60.714,62.592,60.5,62,60.5 c-1.228,0-2.245,0.887-2.455,2.055C59.366,62.527,59.187,62.5,59,62.5c-1.933,0-3.5,1.567-3.5,3.5s1.567,3.5,3.5,3.5s7.5,0,7.5,0 V70h7V69.5z" />
    <path fill="#472b29" d="M75.25 65C75.112 65 75 64.888 75 64.75c0-1.223.995-2.218 2.218-2.218.034.009.737-.001 1.244.136.133.036.212.173.176.306-.036.134-.173.213-.306.176-.444-.12-1.1-.12-1.113-.118-.948 0-1.719.771-1.719 1.718C75.5 64.888 75.388 65 75.25 65zM68.5 69A.5.5 0 1 0 68.5 70 .5.5 0 1 0 68.5 69z" />
    <path fill="#472b29" d="M77,70h-3.5c-0.276,0-0.5-0.224-0.5-0.5s0.224-0.5,0.5-0.5H77c1.654,0,3-1.346,3-3 c0-1.496-1.125-2.768-2.618-2.959c-0.134-0.018-0.255-0.088-0.336-0.196s-0.115-0.244-0.094-0.377C76.975,62.314,77,62.16,77,62 c0-1.654-1.346-3-3-3c-0.85,0-1.638,0.355-2.219,1c-0.125,0.139-0.321,0.198-0.5,0.148c-0.182-0.049-0.321-0.195-0.36-0.379 C70.58,58.165,69.141,57,67.5,57c-1.93,0-3.5,1.57-3.5,3.5c0,0.143,0.021,0.28,0.041,0.418c0.029,0.203-0.063,0.438-0.242,0.54 c-0.179,0.102-0.396,0.118-0.556-0.01C62.878,61.155,62.449,61,62,61c-0.966,0-1.792,0.691-1.963,1.644 c-0.048,0.267-0.296,0.446-0.569,0.405C59.314,63.025,59.16,63,59,63c-1.654,0-3,1.346-3,3s1.346,3,3,3h7.5 c0.276,0,0.5,0.224,0.5,0.5S66.776,70,66.5,70H59c-2.206,0-4-1.794-4-4s1.794-4,4-4c0.059,0,0.116,0.002,0.174,0.006 C59.588,60.82,60.711,60,62,60c0.349,0,0.689,0.061,1.011,0.18C63.176,57.847,65.126,56,67.5,56c1.831,0,3.466,1.127,4.153,2.774 C72.333,58.276,73.155,58,74,58c2.206,0,4,1.794,4,4c0,0.048-0.001,0.095-0.004,0.142C79.739,62.59,81,64.169,81,66 C81,68.206,79.206,70,77,70z" />
    <path fill="#472b29" d="M71.5,69c-0.159,0-0.841,0-1,0c-0.276,0-0.5,0.224-0.5,0.5c0,0.276,0.224,0.5,0.5,0.5 c0.159,0,0.841,0,1,0c0.276,0,0.5-0.224,0.5-0.5C72,69.224,71.776,69,71.5,69z" />
  </g>
  <g>
    <path fill="#f15b6c" d="M69,57.972c0,9.658-7.835,17.487-17.5,17.487S34,67.63,34,57.972 c0-13.115,16.042-24.045,16.042-36.432c3.644,1.82,9.479,8.255,9.479,16.759c0,3.643-0.729,7.286-0.729,7.286 c4.375-1.457,4.375-6.558,4.375-6.558S69,47.043,69,57.972z" />
    <path fill="#472b29" d="M51.5,76.159c-10.036,0-18.2-8.158-18.2-18.187c0-6.867,4.227-13.104,8.313-19.136 c3.974-5.866,7.728-11.406,7.728-17.296c0-0.242,0.126-0.468,0.332-0.596c0.207-0.127,0.464-0.14,0.681-0.03 c4.097,2.045,9.867,8.791,9.867,17.384c0,2.356-0.294,4.685-0.512,6.09c2.722-1.701,2.757-5.32,2.757-5.361 c0-0.303,0.195-0.572,0.483-0.666c0.288-0.088,0.604,0.009,0.783,0.254c0.244,0.335,5.968,8.327,5.968,19.357 C69.7,68.001,61.536,76.159,51.5,76.159z M50.694,22.729c-0.462,5.883-4.25,11.474-7.922,16.893 C38.804,45.479,34.7,51.535,34.7,57.973c0,9.256,7.536,16.786,16.8,16.786s16.8-7.53,16.8-16.786 c0-7.818-3.093-14.177-4.723-16.982c-0.451,1.781-1.607,4.274-4.564,5.26c-0.236,0.079-0.498,0.025-0.685-0.14 s-0.272-0.417-0.223-0.662c0.007-0.035,0.716-3.621,0.716-7.149C58.821,31.061,54.276,25.092,50.694,22.729z" />
    <path fill="#f69272" d="M57.422,51.05c-2.895-5.081-6.329-8.015-6.329-8.015c0,10.201-9.525,15.301-9.525,22.223 c0,5.433,4.428,9.837,9.891,9.837s9.891-4.404,9.891-9.837c0-1.129-0.078-2.22-0.211-3.279 C60.579,58.125,59.352,54.478,57.422,51.05z" />
    <path fill="#472b29" d="M58.579 53.736c-.188 0-.368-.106-.453-.288-.114-.244-.232-.48-.35-.716-.124-.247-.024-.548.223-.672.248-.123.547-.023.671.223.122.243.244.489.362.741.117.25.01.548-.241.665C58.722 53.722 58.649 53.736 58.579 53.736zM60.236 58.108c-.217 0-.416-.142-.48-.359-.282-.965-.619-1.929-1.003-2.866-.104-.256.018-.548.273-.652.254-.104.547.018.652.273.396.97.746 1.967 1.037 2.964.078.266-.075.543-.34.62C60.329 58.102 60.282 58.108 60.236 58.108z" />
    <path fill="#472b29" d="M51.458,75.595c-5.729,0-10.391-4.637-10.391-10.336c0-3.285,2.023-6.153,4.166-9.19 c2.512-3.562,5.359-7.599,5.359-13.033c0-0.195,0.113-0.372,0.291-0.454s0.386-0.051,0.534,0.074 c0.143,0.122,3.535,3.049,6.439,8.147c0.137,0.239,0.053,0.545-0.187,0.682c-0.24,0.134-0.545,0.052-0.682-0.188 c-1.991-3.495-4.263-5.977-5.432-7.139c-0.351,5.18-3.079,9.047-5.504,12.486c-2.137,3.03-3.983,5.646-3.983,8.614 c0,5.147,4.213,9.336,9.391,9.336s9.391-4.188,9.391-9.336c0-1.055-0.068-2.106-0.207-3.217c-0.034-0.274,0.16-0.524,0.434-0.559 c0.277-0.036,0.524,0.159,0.558,0.434c0.145,1.152,0.215,2.245,0.215,3.342C61.849,70.958,57.188,75.595,51.458,75.595z" />
    <path fill="#f9e65c" d="M53.348,56.151c-0.458-0.728-0.936-1.457-1.456-2.186c0,6.558-6.541,9.472-6.541,14.937 c0,3.42,2.766,6.193,6.177,6.193s6.177-2.773,6.177-6.193c0-0.839-0.072-1.69-0.205-2.55 C56.687,62.782,55.424,59.346,53.348,56.151z" />
    <path fill="#472b29" d="M56.313 62.479c-.201 0-.391-.122-.467-.322-.09-.237-.185-.477-.284-.715-.105-.256.016-.548.271-.653.255-.107.548.016.653.271.103.248.2.495.294.742.098.258-.031.547-.289.645C56.433 62.469 56.372 62.479 56.313 62.479zM55.368 60.294c-.187 0-.365-.104-.451-.283-.229-.478-.47-.956-.729-1.436-.132-.243-.042-.546.201-.678.243-.131.546-.042.678.201.268.493.516.987.752 1.479.12.249.015.548-.234.667C55.514 60.278 55.44 60.294 55.368 60.294z" />
    <g>
      <path fill="#472b29" d="M51.529,75.595c-3.682,0-6.677-3.003-6.677-6.693c0-2.771,1.527-4.851,3.144-7.051 c1.67-2.271,3.396-4.621,3.396-7.886c0-0.218,0.141-0.41,0.348-0.477c0.208-0.062,0.434,0.01,0.56,0.187 c0.473,0.663,0.954,1.386,1.472,2.209c0.147,0.234,0.077,0.543-0.157,0.689c-0.232,0.15-0.542,0.077-0.689-0.156 c-0.218-0.348-0.43-0.677-0.637-0.989c-0.411,2.831-1.971,4.953-3.486,7.016c-1.517,2.064-2.95,4.014-2.95,6.458 c0,3.14,2.547,5.693,5.677,5.693s5.677-2.554,5.677-5.693c0-0.788-0.067-1.62-0.199-2.474c-0.042-0.272,0.145-0.528,0.418-0.57 c0.275-0.042,0.528,0.145,0.57,0.418c0.14,0.903,0.21,1.787,0.21,2.626C58.206,72.592,55.21,75.595,51.529,75.595z" />
    </g>
  </g>
</svg>