<?xml version="1.0" encoding="utf-8"?>
<svg xmlns="http://www.w3.org/2000/svg" viewBox="0 0 48 48" width="40" height="40">
  <path d="M23.93 30.4l.81 1.6h-8.88l5.15-7.33 2.78 5.36C23.83 30.16 23.87 30.28 23.93 30.4zM42 9.34v19.32C42 30.5 40.43 32 38.5 32H36l-5.16-5.44-3.24-6.33 3.31-4.32c.52-.51.71-1.26.51-1.96L29.14 6h9.36C40.43 6 42 7.5 42 9.34zM24.99 6l2.26 7.92-2.26 2.26c-.37.37-.8.68-1.26.92l-3.43 1.75c-.78.4-1.44.99-1.92 1.73L10.94 32H9.5C7.57 32 6 30.5 6 28.66V9.34C6 7.5 7.57 6 9.5 6H24.99zM19.5 17.118c1.933 0 3.5-1.567 3.5-3.5 0-.02-.006-.039-.006-.059 0-.02.006-.039.006-.059 0-1.933-1.567-3.5-3.5-3.5S16 11.567 16 13.5c0 .02.006.039.006.059 0 .02-.006.039-.006.059C16 15.551 17.567 17.118 19.5 17.118zM31.49 45.94C31.32 45.98 31.16 46 31 46c-.77 0-1.47-.45-1.8-1.14-.01-.02-.02-.03-.03-.05-.01-.02-.01-.04-.02-.06-.03-.09-.07-.17-.09-.26l-1.95-7.79L25.24 33l-.5-1h5.13l.31 1h.01l.71 2.33-.05-.06c.03.08.07.16.09.24l2 8C33.21 44.59 32.56 45.67 31.49 45.94z" />
</svg>